<?xml version="1.0" encoding="utf-8"?>

<!-- License Agreement at http://iconmonstr.com/license/ -->

<!DOCTYPE svg PUBLIC "-//W3C//DTD SVG 1.1//EN" "http://www.w3.org/Graphics/SVG/1.1/DTD/svg11.dtd">
<svg version="1.1" xmlns="http://www.w3.org/2000/svg" xmlns:xlink="http://www.w3.org/1999/xlink" x="0px" y="0px"
	 width="512px" height="512px" viewBox="0 0 512 512" enable-background="new 0 0 512 512" xml:space="preserve">
<path id="menu-10-icon" d="M256,90c44.34,0,86.026,17.267,117.38,48.62C404.732,169.974,422,211.66,422,256
	s-17.268,86.026-48.62,117.38C342.026,404.733,300.34,422,256,422c-44.341,0-86.026-17.267-117.38-48.62S90,300.34,90,256
	s17.267-86.026,48.62-117.38S211.659,90,256,90z M256,50C142.229,50,50,142.229,50,256s92.229,206,206,206s206-92.229,206-206
	S369.771,50,256,50z M194.141,256c0,17.22-13.959,31.18-31.179,31.18c-17.221,0-31.18-13.96-31.18-31.18
	c0-17.221,13.959-31.181,31.18-31.181C180.182,224.819,194.141,238.779,194.141,256z M256,224.819
	c-17.221,0-31.181,13.96-31.181,31.181c0,17.22,13.96,31.18,31.181,31.18c17.22,0,31.18-13.96,31.18-31.18
	C287.18,238.779,273.22,224.819,256,224.819z M349.037,224.819c-17.22,0-31.178,13.96-31.178,31.181
	c0,17.22,13.958,31.18,31.178,31.18c17.222,0,31.181-13.96,31.181-31.18C380.218,238.779,366.259,224.819,349.037,224.819z"/>
</svg>
